<!-- icon666.com - MILLIONS OF FREE VECTOR ICONS --><svg id="Layer_1" enable-background="new 0 0 50 50" viewBox="0 0 50 50" xmlns="http://www.w3.org/2000/svg"><g><path d="m46.5723 26.48242c.55273 0 1-.44775 1-1 0-12.01917-9.66235-21.81726-21.62598-22.05151l.72363-.72388c.39063-.39063.39063-1.02393 0-1.41406-.39063-.39063-1.02344-.39063-1.41406 0l-2.42773 2.42822c-.39063.39063-.39063 1.02344 0 1.41406l2.42773 2.42871c.39062.39061 1.02343.39064 1.41406 0 .39063-.39014.39063-1.02344 0-1.41406l-.70654-.70703c10.85181.24439 19.60889 9.13013 19.60889 20.03955 0 .55225.44727 1 1 1z" fill="#000000" style="fill: #030bfc;"></path><path d="m2.42777 24.46338c0 12.06616 9.73779 21.89502 21.76611 22.05493l-.7749.77466c-.39063.39014-.39063 1.02344 0 1.41406.39062.39061 1.02343.39064 1.41406 0l2.42871-2.42822c.1875-.1875.29297-.44189.29297-.70703s-.10547-.51953-.29297-.70703l-2.42871-2.42822c-.39063-.39063-1.02344-.39063-1.41406 0s-.39063 1.02393 0 1.41406l.6543.65417c-10.86865-.22497-19.64551-9.11963-19.64551-20.04138 0-.55225-.44727-1-1-1s-1 .44775-1 1z" fill="#000000" style="fill: #030bfc;"></path><path d="m19.90531 19.87793c-2.83279 2.83077-2.8441 7.41273-.01563 10.24121 2.83687 2.83586 7.41914 2.80794 10.24121-.01514 2.82715-2.82764 2.83398-7.42188.01563-10.24121-2.83687-2.83585-7.41914-2.80794-10.24121.01514zm8.81152 8.81201c-2.0527 2.05169-5.36772 2.05949-7.41309.01514-2.0421-2.04311-2.03948-5.35899.01563-7.41309 2.0527-2.05169 5.36772-2.05949 7.41309-.01514 2.03906 2.03956 2.03222 5.36475-.01563 7.41309z" fill="#000000" style="fill: #030bfc;"></path><path d="m39.6055 28.16211c.44922-.10742.76563-.50781.76758-.96924l.0166-4.57715c.00195-.46582-.31836-.87109-.77246-.97705l-3.72168-.87109c-.08105-.21484-.16895-.42627-.26172-.63232l1.99707-3.22217c.24512-.39453.18555-.90576-.14258-1.23389l-3.23047-3.23047c-.32813-.32861-.84082-.38574-1.2334-.14307l-3.2627 2.01953c-.20215-.08887-.41113-.17285-.62793-.25293l-.86523-3.68164c-.10645-.45166-.50977-.771-.97363-.771-.00098 0-.00195 0-.00293 0l-4.57324.0127c-.46094.00146-.86133.31787-.96973.76611l-.89648 3.72998c-.21875.0835-.43359.17334-.64258.26904l-3.21289-1.9751c-.39453-.2417-.9043-.18311-1.23047.14502l-3.24414 3.24414c-.32715.32764-.3877.83691-.14453 1.23145l1.99902 3.24707c-.09277.21094-.17969.42578-.25879.64307l-3.69141.88232c-.44922.10742-.7666.5083-.76758.96973l-.0127 4.58154c-.00098.46582.31934.87061.77246.97656l3.72266.87109c.0791.2085.16602.41699.25977.62549l-1.99707 3.22998c-.24414.39453-.18457.90479.14355 1.23291l3.22559 3.22607c.32617.32813.83887.38672 1.23242.14404l3.27051-2.01807c.20801.09082.41797.17529.62891.25293l.8623 3.68262c.10547.45215.50879.77197.97363.77197h.00293l4.57227-.0127c.46191-.00146.8623-.31836.96973-.76758l.89355-3.7373c.22168-.08398.43457-.17236.64063-.26611l3.21777 1.98047c.39258.24121.90332.18311 1.23145-.14453l3.24414-3.24414c.32715-.32715.3877-.83594.14551-1.23047l-2.00195-3.25732c.09082-.20508.17773-.4165.25977-.63721zm-5.93652 2.10498 1.87207 3.04736-2.12695 2.12744-3.0127-1.854c-.30078-.18506-.67578-.19775-.9873-.03467-.42285.2207-.87695.41064-1.39063.58057-.10645.03516-.20898.09082-.29883.16016-.01758.01367-.03516.02783-.05176.04248-.00098.00049-.00098.00098-.00195.00146v.00049c-.00098.00049-.00195.00098-.00195.00098l-.00098.00097s-.00098.00098-.00195.00195c-.00195.00098-.00195.00098-.00391.00391l-.00098.00049c0 .00049-.00098.00098-.00098.00098-.00098.00049-.00098.00098-.00098.00098-.00098.00049-.00098.00049-.00098.00049-.10742.09814-.18848.21436-.24219.33936-.02344.05322-.04199.10889-.05566.1665l-.83594 3.49658-2.99023.0083-.80762-3.44873c-.08105-.34521-.33887-.62207-.67773-.72705-.4707-.146-.94043-.33398-1.39648-.55957-.14063-.06934-.29199-.10352-.44336-.10352-.18262 0-.36426.0498-.52539.14893l-3.05566 1.88525-2.10644-2.10693 1.86816-3.021c.18359-.29639.19922-.66699.04102-.97803-.23535-.46533-.42871-.93213-.57519-1.38818-.10645-.33496-.38184-.58887-.72461-.66895l-3.48242-.81494.00879-2.99951 3.46288-.82764c.34375-.08203.61914-.33984.72266-.67773.14258-.45947.32031-.90674.53125-1.33105.01074-.01709.01953-.03418.0293-.05176.15723-.3042.15137-.67773-.03711-.98389l-1.87109-3.03857 2.12695-2.12695 3.00977 1.8501c.30176.18457.67676.1958.99023.03271.42969-.22705.89551-.42236 1.38477-.58105.33105-.10742.58203-.37891.66406-.71729l.83984-3.49414 2.99219-.0083.81055 3.44531c.08105.3418.33398.61621.66895.72314.5166.16553.97168.34961 1.39355.5625.30957.1582.68066.14209.97754-.04199l3.0498-1.88818 2.11035 2.10986-1.87012 3.01709c-.18652.30029-.2002.67676-.03613.99023.22461.42969.41699.89453.57324 1.38086.10645.33496.38184.58887.72461.66895l3.48145.81494-.01074 2.99512-3.45605.82764c-.33887.08105-.61133.33252-.71875.66357-.16895.521-.35547.97803-.57031 1.39746-.15822.31054-.14357.68115.03807.97851z" fill="#000000" style="fill: #030bfc;"></path></g></svg>