<!-- icon666.com - MILLIONS OF FREE VECTOR ICONS --><svg fill="none" viewBox="0 0 24 24" xmlns="http://www.w3.org/2000/svg"><g fill="rgb(0,0,0)"><path d="m12.823 15.1221c-.517 0-.816.491-.816 1.146 0 .661.311 1.126.82 1.126.517 0 .812-.49.812-1.146 0-.604-.291-1.126-.816-1.126z" fill="rgb(0,0,0)" style="fill: #030bfc;"></path><path d="m14 2h-8c-.53043 0-1.03914.21071-1.41421.58579-.37508.37507-.58579.88378-.58579 1.41421v16c0 .5304.21071 1.0391.58579 1.4142.37507.3751.88378.5858 1.41421.5858h12c.5304 0 1.0391-.2107 1.4142-.5858s.5858-.8838.5858-1.4142v-12zm-5.978 14.704c0 .961-.461 1.296-1.2 1.296-.176 0-.406-.029-.557-.08l.086-.615c.104.035.239.06.391.06.319 0 .52-.145.52-.67v-2.122h.761v2.131zm1.459 1.291c-.385 0-.766-.1-.955-.205l.155-.631c.204.105.521.211.846.211.35 0 .534-.146.534-.365 0-.211-.159-.331-.564-.476-.562-.195-.927-.506-.927-.996 0-.576.481-1.017 1.277-1.017.38 0 .659.08.861.171l-.172.615c-.135-.065-.375-.16-.705-.16s-.491.15-.491.325c0 .215.19.311.627.476.596.22.876.53.876 1.006.001.566-.436 1.046-1.362 1.046zm3.306.005c-1.001 0-1.586-.755-1.586-1.716 0-1.012.646-1.768 1.642-1.768 1.035 0 1.601.776 1.601 1.707-.001 1.107-.671 1.777-1.657 1.777zm4.947-.055h-.802l-.721-1.302c-.2157-.3862-.411-.7834-.585-1.19l-.016.005c.021.445.031.921.031 1.472v1.016h-.701v-3.373h.891l.701 1.236c.2.354.4.775.552 1.155h.014c-.05-.445-.065-.9-.065-1.406v-.985h.702v3.372zm-3.734-8.945h-1v-5l5 5z" fill="rgb(0,0,0)" style="fill: #030bfc;"></path></g></svg>