<!-- icon666.com - MILLIONS OF FREE VECTOR ICONS --><svg id="Layer_1" viewBox="0 0 32 32" xmlns="http://www.w3.org/2000/svg"><path d="m1.098 6.415h18.247c.48 1.826 2.139 3.192 4.107 3.192s3.627-1.367 4.107-3.192h3.352c1.452.032 1.452-2.162 0-2.129h-3.35c-.479-1.828-2.138-3.192-4.109-3.192s-3.631 1.365-4.109 3.192h-18.245c-1.238.107-1.33 2.095 0 2.129zm22.353-3.198c1.188 0 2.129.941 2.129 2.129s-.941 2.129-2.129 2.129-2.129-.94-2.129-2.129c0-1.188.941-2.129 2.129-2.129zm7.46 11.718h-16.123c-.478-1.829-2.138-3.197-4.109-3.197s-3.629 1.37-4.107 3.197c-1.856 0-3.736 0-5.584 0-1.387.104-1.28 2.171.11 2.131h5.476c.48 1.824 2.136 3.191 4.105 3.191s3.627-1.367 4.107-3.191h16.125c1.451.031 1.451-2.163 0-2.131zm-20.233 3.192c-1.188 0-2.129-.943-2.129-2.132s.941-2.129 2.129-2.129c1.189 0 2.129.94 2.129 2.129.001 1.189-.94 2.132-2.129 2.132zm20.233 7.451h-5.484c-.48-1.825-2.137-3.192-4.105-3.192s-3.62 1.368-4.099 3.192h-16.125c-1.452-.032-1.452 2.162 0 2.129h16.123c.476 1.829 2.129 3.199 4.101 3.199 1.971 0 3.629-1.37 4.107-3.199h5.482c1.451.033 1.451-2.161 0-2.129zm-9.589 3.199c-1.188 0-2.132-.941-2.132-2.129s.943-2.132 2.132-2.132 2.129.943 2.129 2.132c0 1.188-.941 2.129-2.129 2.129z" fill="#000000" style="fill: #fff;"></path></svg>