<!-- icon666.com - MILLIONS OF FREE VECTOR ICONS --><svg version="1.1" id="Capa_1" xmlns="http://www.w3.org/2000/svg" xmlns:xlink="http://www.w3.org/1999/xlink" x="0px" y="0px" viewBox="0 0 283.194 283.194" style="enable-background:new 0 0 283.194 283.194;" xml:space="preserve"><g><path d="M141.597,32.222c-60.31,0-109.375,49.065-109.375,109.375s49.065,109.375,109.375,109.375s109.375-49.065,109.375-109.375 S201.907,32.222,141.597,32.222z M141.597,232.972c-50.384,0-91.375-40.991-91.375-91.375s40.991-91.375,91.375-91.375 s91.375,40.991,91.375,91.375S191.981,232.972,141.597,232.972z" fill="#000000" style="fill: #030bfc;"></path><path d="M200.173,143.597h-57.576v-38c0-4.971-4.029-9-9-9s-9,4.029-9,9v47c0,4.971,4.029,9,9,9h66.576c4.971,0,9-4.029,9-9 S205.144,143.597,200.173,143.597z" fill="#000000" style="fill: #030bfc;"></path><path d="M141.597,0C63.52,0,0,63.52,0,141.597s63.52,141.597,141.597,141.597s141.597-63.52,141.597-141.597S219.674,0,141.597,0z M141.597,265.194C73.445,265.194,18,209.749,18,141.597S73.445,18,141.597,18s123.597,55.445,123.597,123.597 S209.749,265.194,141.597,265.194z" fill="#000000" style="fill: #030bfc;"></path></g></svg>